<svg xmlns="http://www.w3.org/2000/svg" viewBox="0 0 960 420" role="img" aria-labelledby="title desc">
  <title id="title">明るいカフェ店内</title>
  <desc id="desc">窓、テーブル、コーヒーカップ、植物がある明るいカフェのイラスト</desc>
  <rect width="960" height="420" fill="#fff7df"/>
  <rect x="0" y="285" width="960" height="135" fill="#d9b88f"/>
  <rect x="80" y="64" width="260" height="170" rx="10" fill="#d8f0f6" stroke="#7aa8ad" stroke-width="6"/>
  <line x1="210" y1="64" x2="210" y2="234" stroke="#7aa8ad" stroke-width="6"/>
  <line x1="80" y1="149" x2="340" y2="149" stroke="#7aa8ad" stroke-width="6"/>
  <circle cx="650" cy="110" r="42" fill="#ffd66b"/>
  <rect x="470" y="178" width="330" height="28" rx="14" fill="#7b5a42"/>
  <rect x="520" y="206" width="26" height="116" rx="8" fill="#6b4935"/>
  <rect x="724" y="206" width="26" height="116" rx="8" fill="#6b4935"/>
  <ellipse cx="635" cy="178" rx="170" ry="32" fill="#8f694c"/>
  <rect x="568" y="128" width="92" height="56" rx="14" fill="#ffffff" stroke="#b88a62" stroke-width="5"/>
  <path d="M660 145h24c14 0 24 10 24 23s-10 23-24 23h-26" fill="none" stroke="#b88a62" stroke-width="8"/>
  <path d="M596 115c-10-22 18-30 8-52M632 115c-8-20 16-28 8-48" fill="none" stroke="#9a7b63" stroke-width="6" stroke-linecap="round"/>
  <rect x="118" y="275" width="154" height="24" rx="12" fill="#7b5a42"/>
  <rect x="145" y="299" width="18" height="70" rx="6" fill="#6b4935"/>
  <rect x="227" y="299" width="18" height="70" rx="6" fill="#6b4935"/>
  <circle cx="172" cy="254" r="26" fill="#ffffff" stroke="#b88a62" stroke-width="5"/>
  <rect x="180" y="246" width="54" height="14" rx="7" fill="#b88a62"/>
  <rect x="820" y="194" width="42" height="126" rx="8" fill="#8f694c"/>
  <path d="M842 190c-34-42-16-87 22-116 22 46 16 86-22 116Z" fill="#6fbf82"/>
  <path d="M842 191c34-40 24-84-6-116-26 42-26 82 6 116Z" fill="#4f9e66"/>
  <rect x="790" y="312" width="100" height="56" rx="8" fill="#c66f4a"/>
</svg>
